<?xml version="1.0" standalone="no"?>
<!DOCTYPE svg PUBLIC "-//W3C//DTD SVG 20010904//EN"
 "http://www.w3.org/TR/2001/REC-SVG-20010904/DTD/svg10.dtd">
<svg version="1.0" xmlns="http://www.w3.org/2000/svg"
 width="512.000000pt" height="512.000000pt" viewBox="0 0 512.000000 512.000000"
 preserveAspectRatio="xMidYMid meet">
<metadata>
Created by potrace 1.16, written by Peter Selinger 2001-2019
</metadata>
<g transform="translate(0.000000,512.000000) scale(0.100000,-0.100000)"
fill="#000000" stroke="none">
<path d="M901 5104 c-84 -23 -183 -80 -245 -142 -67 -67 -88 -98 -122 -172
-54 -117 -52 -43 -47 -1921 l6 -1743 33 -52 c35 -54 164 -218 227 -289 l36
-40 1 1926 c0 2114 -4 1973 59 2050 16 19 53 48 82 64 l54 30 235 0 c276 0
286 -3 352 -94 50 -69 69 -86 133 -117 l50 -24 396 0 c456 0 463 1 536 79 23
25 62 67 85 92 61 66 88 71 342 67 232 -4 251 -8 321 -69 21 -19 49 -56 61
-84 l24 -50 0 -721 0 -721 54 -12 c30 -7 99 -34 153 -61 54 -28 99 -50 101
-50 1 0 2 354 2 788 0 872 1 856 -65 981 -19 36 -53 87 -75 112 -50 59 -157
132 -235 161 l-60 23 -1220 2 c-1040 2 -1228 0 -1274 -13z"/>
<path d="M3520 870 l0 -680 27 11 c16 6 85 40 155 76 l128 66 0 603 0 604
-155 0 -155 0 0 -680z"/>
</g>
</svg>
